<svg xmlns="http://www.w3.org/2000/svg" viewBox="0 0 223.71 38"><defs><style>.cls-1{fill:#231815;}.cls-2{fill:#fff;}</style></defs><g id="レイヤー_2" data-name="レイヤー 2"><g id="レイヤー_1-2" data-name="レイヤー 1"><rect class="cls-1" width="38" height="38"/><rect class="cls-2" x="3.74" y="3.74" width="30.5" height="30.5"/><rect class="cls-1" x="5" y="5.01" width="28" height="28"/><rect class="cls-2" x="6.26" y="6.25" width="25.5" height="25.5"/><rect class="cls-1" x="7.5" y="7.5" width="23" height="23"/><rect class="cls-2" x="8.75" y="8.75" width="20.5" height="20.5"/><rect class="cls-1" x="10" y="10" width="18" height="18"/><rect class="cls-2" x="11.25" y="11.25" width="15.5" height="15.5"/><path class="cls-1" d="M18.44,13.89a.21.21,0,0,1,.11.32,4.46,4.46,0,0,1-.45.65H23c.2,0,.3.07.3.19s-.1.19-.3.19H21.91a4.24,4.24,0,0,1-1.68,2.07c1,.27,1.9.51,2.57.73.23.11.29.23.19.35s-.22.16-.45.11l-2.87-.87a13.16,13.16,0,0,1-4.7,1c-.2,0-.3-.09-.3-.22s.1-.17.3-.19a15,15,0,0,0,4-.73A28.22,28.22,0,0,0,16,16.76c-.35-.16-.37-.36-.07-.59a12.81,12.81,0,0,0,1.12-.93H15c-.2,0-.3-.06-.3-.19s.1-.19.3-.19h2.35A5.87,5.87,0,0,0,18,14,.35.35,0,0,1,18.44,13.89Zm.22-1.2c0-.18.11-.27.34-.27s.33.09.33.27v.41H22.5a.68.68,0,0,1,.41.14.37.37,0,0,1,.19.3v.73c0,.14-.09.22-.26.22s-.26-.08-.26-.22v-.65c0-.09-.06-.14-.19-.14H15.57c-.13,0-.19,0-.19.14v.67c0,.15-.09.22-.26.22s-.26-.07-.26-.22v-.75a.38.38,0,0,1,.18-.3.7.7,0,0,1,.41-.14h3.21ZM16.57,16.3c-.07.06-.07.1,0,.14.7.14,1.69.38,3,.7a3.54,3.54,0,0,0,1.64-1.9H17.8A10.28,10.28,0,0,1,16.57,16.3Z"/><path class="cls-1" d="M15.64,20.8c.17,0,.26.08.26.24a12.09,12.09,0,0,1-.48,3.34.43.43,0,0,1-.49.25c-.2-.06-.26-.19-.18-.41A10.3,10.3,0,0,0,15.34,21Q15.34,20.8,15.64,20.8Zm1.23-.19c0-.18.11-.27.34-.27s.33.09.33.27v3.88c0,.34.24.52.71.52H20.3c.5,0,.75-.18.75-.55V23c0-.14.09-.22.26-.22s.26.08.26.22v1.52c0,.63-.43,1-1.3,1H17.84c-.65,0-1-.24-1-.71Zm1.42-1.06a.35.35,0,0,1,.41.14,11.34,11.34,0,0,1,1.45,3.2c.05.22,0,.34-.26.38a.37.37,0,0,1-.41-.27,16,16,0,0,0-1.3-3.15C18.1,19.71,18.14,19.61,18.29,19.55Zm3.43,1.25a.35.35,0,0,1,.41.14,9.28,9.28,0,0,1,1.16,3.33.33.33,0,0,1-.34.36c-.22,0-.35-.1-.37-.3a10.24,10.24,0,0,0-1-3.23C21.53,20.94,21.57,20.84,21.72,20.8Z"/><path class="cls-1" d="M137,17.11a.89.89,0,0,1,.29,1.17,21.82,21.82,0,0,1-1.16,2.32h12.78c.52,0,.78.23.78.68s-.26.68-.78.68H146a15.12,15.12,0,0,1-4.36,7.36q4.07,1.45,6.68,2.61.87.59.48,1.26c-.19.45-.58.58-1.16.39q-3.87-1.65-7.46-3.1-4,2.72-12.2,3.49-.78-.11-.78-.78c0-.39.26-.61.78-.68q6.78-.76,10.27-2.61a57.74,57.74,0,0,0-7.56-2.52c-.9-.58-1-1.29-.19-2.13a38.77,38.77,0,0,0,2.9-3.29h-5.32c-.52,0-.78-.23-.78-.68s.26-.68.78-.68h6.1A20,20,0,0,0,136,17.4.8.8,0,0,1,137,17.11Zm.58-4.26c0-.64.29-1,.87-1s.87.33.87,1V14.3h8.24a1.67,1.67,0,0,1,1.54,1.55v2.62c0,.52-.22.77-.67.77s-.68-.25-.68-.77V16.14a.42.42,0,0,0-.48-.48H129.56a.43.43,0,0,0-.49.48v2.43c0,.51-.22.77-.67.77s-.68-.26-.68-.77V15.85a1.48,1.48,0,0,1,.48-1.06,1.52,1.52,0,0,1,1.07-.49h8.33Zm-5.42,12.88c-.2.2-.2.36,0,.49,1.8.51,4.39,1.35,7.74,2.52A12.44,12.44,0,0,0,144.18,22h-8.81A34.19,34.19,0,0,1,132.18,25.73Z"/><path class="cls-1" d="M154.55,16.92c.45,0,.68.29.68.87A57.82,57.82,0,0,1,154,29.7c-.26.72-.68,1-1.26.88s-.68-.68-.49-1.46a49,49,0,0,0,1.55-11.33Q153.77,16.92,154.55,16.92Zm3.2-.68c0-.64.28-1,.87-1s.87.33.87,1V30.09a1.62,1.62,0,0,0,1.84,1.84h5.33A1.7,1.7,0,0,0,168.59,30V24.67c0-.52.23-.78.68-.78s.68.26.68.78v5.42q0,3.39-3.39,3.39h-6.3A2.22,2.22,0,0,1,157.75,31Zm3.68-3.78c.38-.19.74,0,1.06.49a50.45,50.45,0,0,1,3.78,11.43c.13.77-.1,1.22-.68,1.35s-.87-.25-1.07-1a70,70,0,0,0-3.38-11.23C160.94,13,161,12.66,161.43,12.46Zm8.91,4.46c.38-.2.74,0,1.06.48a41.51,41.51,0,0,1,3,11.92c0,.77-.28,1.19-.87,1.26s-.9-.36-1-1.07A47.78,47.78,0,0,0,170.05,18C169.85,17.4,170,17.05,170.34,16.92Z"/><path class="cls-1" d="M184.38,12.75c0-.51.23-.77.68-.77s.68.26.68.77v2.13h4.75V12.75c0-.51.22-.77.67-.77s.68.26.68.77v2.13h4a1.52,1.52,0,0,1,1.07.49,1.48,1.48,0,0,1,.48,1.06V27h1.26c.52,0,.78.23.78.68s-.26.68-.78.68H177.7c-.52,0-.78-.23-.78-.68s.26-.68.78-.68h1.16V16.43a1.46,1.46,0,0,1,.49-1.06,1.48,1.48,0,0,1,1.06-.49h4Zm.68,17.05a.93.93,0,0,1-.29,1.36,27.07,27.07,0,0,1-5.91,3.1c-.64.19-1.06.09-1.26-.29s.07-.81.58-1.07a26.37,26.37,0,0,0,5.52-3.2A1,1,0,0,1,185.06,29.8ZM180.22,17v4h4.16V16.24H181A.68.68,0,0,0,180.22,17Zm0,10h4.16V22.15h-4.16Zm5.52-6h4.75V16.24h-4.75Zm0,6h4.75V22.15h-4.75Zm5.52,2.71c.19-.38.55-.48,1.06-.29a37.57,37.57,0,0,1,5.91,3c.58.45.74.93.49,1.45s-.84.48-1.55.1a60.63,60.63,0,0,0-5.43-3.2A.86.86,0,0,1,191.26,29.7Zm.58-8.71H196V17a.69.69,0,0,0-.78-.78h-3.39Zm0,6H196V22.15h-4.17Z"/><path class="cls-1" d="M206.27,12.75c0-.51.23-.77.68-.77s.68.26.68.77v2.81h3c1.16,0,1.75.39,1.75,1.16a4.65,4.65,0,0,1-1.17,1.94,24,24,0,0,1-3.58,3.88v.77q3.78,1.46,4.75,2.52.48.78,0,1.26c-.39.26-.84.16-1.36-.29a16.69,16.69,0,0,0-3.39-2.13v8.81c0,.52-.23.78-.68.78s-.68-.26-.68-.78V23.89a32.27,32.27,0,0,1-3.19,2.23c-.65.32-1.1.29-1.36-.1s0-.83.58-1.16a24.6,24.6,0,0,0,7.56-7c.45-.65.25-1-.59-1h-6.39c-.52,0-.77-.23-.77-.68s.25-.68.77-.68h3.39Zm9.11,1c0-.64.29-1,.87-1s.87.33.87,1V31.06a1.11,1.11,0,0,0,1.26,1.26h2.81a1,1,0,0,0,1.16-1.16V27.77c0-.52.23-.78.68-.78s.68.26.68.78v3.68a2,2,0,0,1-2.23,2.23H217.6a2,2,0,0,1-2.22-2.23Z"/><path class="cls-1" d="M53.77,17.24c0-.32.14-.49.43-.49s.43.17.43.49v2h1.72c.33,0,.49.15.49.43s-.16.44-.49.44H54.63v1.72a12.53,12.53,0,0,1,1.47,2,2.88,2.88,0,0,1,.56,1.42c0,.29-.11.43-.31.43a.58.58,0,0,1-.55-.43c-.13-.25-.31-.68-.56-1.29a10,10,0,0,0-.61-1.05v7.44c0,.33-.15.5-.43.5s-.43-.17-.43-.5V23.39a14.23,14.23,0,0,1-.8,1.85,6.44,6.44,0,0,1-.56.92.58.58,0,0,1-.55.31c-.16,0-.25-.12-.25-.37a.61.61,0,0,1,.19-.43A17.53,17.53,0,0,0,53,23.39a11.58,11.58,0,0,0,.8-3.25H52c-.33,0-.49-.15-.49-.44s.16-.43.49-.43h1.79Zm6.7.13c0-.41.18-.62.55-.62s.56.21.56.62V19H64.1c.33,0,.49.14.49.43s-.16.43-.49.43H61.58v2.89h3.56c.33,0,.5.14.5.43s-.17.43-.5.43h-3.5a8.53,8.53,0,0,0,1.23,2,25.86,25.86,0,0,0,2.46,2.7.89.89,0,0,1,.31.56c0,.37-.17.55-.5.55a.86.86,0,0,1-.61-.31,16.6,16.6,0,0,1-1.48-1.72,22.23,22.23,0,0,1-1.47-2.09v4.92c0,.41-.19.62-.56.62s-.55-.21-.55-.62V25.61a15.94,15.94,0,0,1-1.66,2.21c-.57.58-1.11,1.07-1.6,1.48a1.38,1.38,0,0,1-.68.31.39.39,0,0,1-.43-.43.71.71,0,0,1,.31-.56,12.3,12.3,0,0,0,2.4-2.27,11.94,11.94,0,0,0,1.66-2.77H57c-.33,0-.5-.14-.5-.43s.17-.43.5-.43h3.44V19.83H58.56a7.73,7.73,0,0,1-.43,1.1A10,10,0,0,1,57.52,22a.75.75,0,0,1-.49.25.33.33,0,0,1-.37-.37,1,1,0,0,1,.24-.56,6,6,0,0,0,.56-1.16A14.53,14.53,0,0,0,58,18.35a6.35,6.35,0,0,1,.18-.68.49.49,0,0,1,.43-.18c.33,0,.5.18.5.55a3.57,3.57,0,0,1-.25.93h1.66Z"/><path class="cls-1" d="M76,16.75c.33,0,.51.19.55.56,0,.69.1,1.45.19,2.27h4.06c.32,0,.49.15.49.43s-.17.43-.49.43H76.89a24.28,24.28,0,0,0,2.58,8.18c.21.41.37.41.49,0a20.77,20.77,0,0,0,.44-2.77.39.39,0,0,1,.43-.36c.28,0,.43.16.43.49a15,15,0,0,1-.56,4c-.37.81-.9.84-1.6.06a7.62,7.62,0,0,1-1-1.66,30.58,30.58,0,0,1-2.22-7.94h-8c-.33,0-.49-.14-.49-.43s.16-.43.49-.43h7.93c-.08-.78-.14-1.51-.18-2.21C75.54,17,75.7,16.75,76,16.75ZM74.55,22.9c.33,0,.5.15.5.43s-.17.43-.5.43h-2.4v4.62c1.23-.13,2.5-.31,3.82-.56a.48.48,0,0,1,.55.43c0,.25-.14.41-.43.49a51.12,51.12,0,0,1-8.18.93c-.37,0-.55-.17-.55-.49s.18-.5.55-.5c1,0,2-.1,3.14-.18V23.76h-2.4c-.33,0-.49-.14-.49-.43s.16-.43.49-.43Zm3.2-5.53c.12-.25.37-.29.74-.13a8,8,0,0,1,1.6.93.5.5,0,0,1,.06.74c-.17.16-.41.16-.74,0q-.68-.5-1.47-1A.42.42,0,0,1,77.75,17.37Z"/><path class="cls-1" d="M91.1,17.12a11.92,11.92,0,0,0,2,1.54,20.27,20.27,0,0,0,3.75,1.78c.37.21.47.47.3.8s-.34.33-.67.25a14.21,14.21,0,0,1-2.89-1.29A25.61,25.61,0,0,1,90.54,18a.57.57,0,0,0-.73.06,18,18,0,0,1-6.15,3.69c-.33.09-.54,0-.62-.24a.43.43,0,0,1,.24-.56A19,19,0,0,0,88,18.29l1.23-1.05a1.73,1.73,0,0,1,1-.61A1.55,1.55,0,0,1,91.1,17.12Zm5.16,7.07c.33,0,.49.15.49.43s-.16.44-.49.44H88.7a18.94,18.94,0,0,1-3.08,4.24,74.89,74.89,0,0,0,9.1-.37,15.37,15.37,0,0,0-2-2.34.48.48,0,0,1-.07-.67c.13-.13.33-.13.62,0a12.33,12.33,0,0,1,3.51,3.93.58.58,0,0,1-1,.62,8.83,8.83,0,0,0-.55-.74q-3.57.38-11.38.68c-.41,0-.62-.19-.62-.56a.54.54,0,0,1,.62-.61h.55a16.2,16.2,0,0,0,2.89-4.18H83.78c-.33,0-.5-.15-.5-.44s.17-.43.5-.43Zm-2.09-2.82c.33,0,.49.14.49.43s-.16.43-.49.43h-8.3c-.33,0-.49-.15-.49-.43s.16-.43.49-.43Z"/><path class="cls-1" d="M101.55,17.18c0-.32.14-.49.43-.49s.43.17.43.49V19H104c.53,0,.84.18.92.55a1.81,1.81,0,0,1-.25,1.11,10.27,10.27,0,0,1-2.21,2.83v.12a13.05,13.05,0,0,1,2.71,1.66.62.62,0,0,1,.12.8.66.66,0,0,1-.86,0,12.19,12.19,0,0,0-2-1.41v5.65c0,.33-.14.5-.43.5s-.43-.17-.43-.5V24.26a18.06,18.06,0,0,1-2.15,1.47c-.33.17-.58.12-.74-.12s0-.51.31-.68a11.85,11.85,0,0,0,4.67-4.55c.12-.33,0-.49-.31-.49h-4c-.33,0-.5-.14-.5-.43s.17-.43.5-.43h2.21Zm6.7.31c0-.41.19-.61.56-.61s.55.2.55.61v2.4h2.71c.32,0,.49.14.49.43s-.17.43-.49.43h-2.71v8.67h3c.33,0,.5.15.5.43s-.17.43-.5.43h-7.75c-.32,0-.49-.14-.49-.43s.17-.43.49-.43h3.63V20.75H106c-.33,0-.49-.14-.49-.43s.16-.43.49-.43h2.27Z"/></g></g></svg>